<?xml version="1.0" standalone="no"?><!DOCTYPE svg PUBLIC "-//W3C//DTD SVG 1.1//EN" "http://www.w3.org/Graphics/SVG/1.1/DTD/svg11.dtd"><svg t="1683771792454" class="icon" viewBox="0 0 1024 1024" version="1.1" xmlns="http://www.w3.org/2000/svg" p-id="10062" xmlns:xlink="http://www.w3.org/1999/xlink" width="200" height="200"><path d="M630.247636 603.447758c-6.490831-5.084808-15.842827-3.958148-20.926612 2.512217-12.31242 15.679098-29.262464 33.346479-43.166125 44.998867-6.315846 5.278213-7.140631 14.680351-1.853208 20.985964 2.939959 3.52222 7.170307 5.336542 11.429307 5.336542 3.375887 0 6.77224-1.144056 9.556657-3.482311 18.638499-15.610536 36.741809-35.771715 47.473221-49.422619C637.843638 617.904005 636.719025 608.531544 630.247636 603.447758z" p-id="10063"></path><path d="M611.38708 97.752348c-227.462548 0-412.517241 185.049576-412.517241 412.516218 0 227.457432 185.05367 412.505985 412.517241 412.505985 227.456409 0 412.505985-185.048553 412.505985-412.505985C1023.893065 282.801924 838.843488 97.752348 611.38708 97.752348zM460.188472 861.778338c-28.330232-12.234649-54.895261-27.777647-79.207993-46.172599 64.417125-34.850739 117.255541-70.360488 157.261697-105.647155 14.69877 5.879917 33.870412 9.809413 47.25014 9.809413 6.684236 0 12.059664-0.892323 16.426111-2.726088 9.692756-4.046153 80.740906-67.508533 85.475743-81.313957 2.289136-6.685259 5.724375-42.738383 3.220345-66.750263 79.96524-78.122265 185.952132-190.036147 224.635153-290.987351 14.931061 19.481703 28.02938 40.439014 39.050388 62.608943-0.766456 0.989537-1.465374 2.036379-1.979074 3.230578-70.641897 162.801876-331.668888 397.351843-485.836107 504.598426C461.997678 851.551416 459.814965 856.69353 460.188472 861.778338zM660.935566 569.665351c1.697665 13.486152 0.378623 46.39568-1.50426 55.428404-8.28571 11.128455-58.931181 57.591673-69.350484 64.529689-0.649799 0.125867-2.076288 0.339738-4.588505 0.339738-15.33936 0-39.303144-7.363711-43.853787-11.352559-4.675486-5.122671-8.420787-31.036877-8.265244-41.87369 11.079336-12.671601 59.803038-57.456596 70.320579-64.461127 5.327332-1.270946 24.663726-3.338025 42.369993-3.338025C653.328307 568.93778 658.034493 569.295937 660.935566 569.665351zM475.027435 519.795547c-7.446599 5.529947-14.296611 10.57587-19.894096 14.631232-2.416026 1.74576-4.123924 4.094248-5.127787 6.684236-68.482721 57.223283-133.060505 102.43602-181.032076 131.61969-1.111311 0.669242-2.051729 1.50426-2.915399 2.396583-9.386788-19.589151-17.070794-40.127929-23.046902-61.375859 1.411139-0.399089 2.789533-0.99056 4.079922-1.833765 146.909931-95.79988 393.636219-299.738665 471.214085-468.924949 0.019443-0.038886 0.019443-0.077771 0.038886-0.116657 18.326391 5.346775 36.081777 12.011568 53.166897 19.918655C700.23871 300.468283 584.675718 424.64649 475.027435 519.795547zM611.38708 127.557164c9.895371 0 19.676132 0.50449 29.387307 1.242294C611.76468 196.878996 523.630387 286.487873 452.857507 345.661577c-6.310729 5.27719-7.150864 14.669094-1.87265 20.985964 2.949168 3.53143 7.179516 5.345752 11.443633 5.345752 3.371794 0 6.762007-1.134847 9.55154-3.474125 27.728528-23.177885 163.642011-140.283 199.530382-236.198513 5.820566 0.920976 11.603269 1.940189 17.327644 3.124154-76.131935 159.562089-315.057559 357.243357-453.03198 448.191742-4.632507-23.76117-7.131421-48.278563-7.131421-73.367985C228.674655 299.236222 400.359852 127.557164 611.38708 127.557164zM279.242354 700.023304c1.794879-0.311085 3.575432-0.825808 5.223978-1.833765 65.37801-39.769772 141.53962-94.829785 216.906122-160.843268 31.172977-23.25668 67.750033-51.081399 68.24429-51.460022 5.239328-3.986801 7.034207-10.749832 5.007037-16.658402 87.435375-86.426395 168.361499-186.407504 223.431745-292.879444 36.005029 20.210297 68.457138 45.998637 96.080266 76.298733-1.339508 1.474584-2.425236 3.230578-3.104711 5.248537-32.298614 95.460142-136.024 206.122521-215.911468 284.536428-6.441713-2.309602-15.57165-3.299139-29.057803-3.299139-16.794501 0-44.853557 1.930979-53.876048 5.559623-12.137435 4.89959-79.984682 68.506257-85.961814 78.664617-5.248537 8.93551-2.338255 46.880727 8.4126 67.604724-38.435381 33.190937-88.925309 66.779939-150.553924 99.921757-2.623757 1.416256-4.632507 3.511987-5.970992 5.947456C326.841442 769.160941 300.146453 736.465285 279.242354 700.023304zM611.38708 892.969735c-44.13622 0-86.514399-7.597025-125.992529-21.412682 155.282622-108.411105 400.106584-327.991126 484.467947-495.198336 2.959402 7.897877 5.637394 15.911388 8.081049 24.041556-4.482081 1.193175-8.363482 4.405333-10.137895 9.071609-19.589151 51.373041-87.339184 139.885957-130.377396 178.917926-6.092765 5.529947-6.558369 14.960737-1.028423 21.053502 2.938935 3.240811 6.985088 4.889357 11.040451 4.889357 3.580548 0 7.160073-1.281179 10.012028-3.860934 41.515532-37.663808 102.251825-115.542526 129.853463-171.631986 4.38589 23.159466 6.782473 47.016827 6.782473 71.427796C994.088248 721.290677 822.409191 892.969735 611.38708 892.969735z" p-id="10064"></path><path d="M80.794629 321.735655c-44.227294 0-80.207763 35.985586-80.207763 80.207763s35.980469 80.207763 80.207763 80.207763c44.23241 0 80.217996-35.985586 80.217996-80.207763S125.02704 321.735655 80.794629 321.735655zM80.794629 452.346365c-27.791973 0-50.402947-22.605857-50.402947-50.402947s22.610974-50.402947 50.402947-50.402947c27.79709 0 50.412157 22.605857 50.412157 50.402947S108.591719 452.346365 80.794629 452.346365z" p-id="10065"></path></svg>